# xmcd
#
# Track frame offsets:
#	150
#	13317
#	25683
#	44272
#	57012
#	73639
#	88117
#	99983
#	112372
#	128268
#	141450
#	156503
#	173082
#	189471
#	204258
#
# Disc length: 2880 seconds
#
# Revision: 1
# Processed by: cddbd v1.4PL0 Copyright (c) Steve Scherf et al.
# Submitted via: audiograbber 1.80
#
DISCID=cd0b3e0f
DTITLE=The Chill - News From The Refrigerator
DYEAR=1900
DGENRE=
TTITLE0=Hurricane In My Heart
TTITLE1=Passion Man
TTITLE2=In The Wind
TTITLE3=Every Emotion
TTITLE4=Walkin' On A Rainbow
TTITLE5=Moneky
TTITLE6=Ride With Me
TTITLE7=MinuteMan
TTITLE8=Don't You Realize It
TTITLE9=Ghost Train
TTITLE10=Ain't That Ahead
TTITLE11=Don't Get Me Wrong
TTITLE12=Wrong Bus
TTITLE13=Blind Flyin'
TTITLE14=Made Of Ice
EXTD=Ripped by K1ckEM
EXTT0=
EXTT1=
EXTT2=
EXTT3=
EXTT4=
EXTT5=
EXTT6=
EXTT7=
EXTT8=
EXTT9=
EXTT10=
EXTT11=
EXTT12=
EXTT13=
EXTT14=
PLAYORDER=
